_________________________  Visit us at _________________________
  
http://p2pdl.com  ____________________________  http://p2pdl.com


Haunters 2010 BRRip 720p x264 AAC - PRiSTiNE


Original Title: Cho-neung-ryeok-ja
Genre: Action | Thriller
Plot: Cho-In can control other people's minds when they are within his field of sight.Except one man. 
Director: Min-suk Kim
Stars: Dong-won Kang, Duek-mun Choi, Jeong Eun-Chae.
Rated: N/a


Info: 
http://www.imdb.com/title/tt1900891/

Trailer:


Format                         : MPEG-4
File size                      : 602 MiB
Duration                       : 1h 47mn
Overall bit rate               : 782 Kbps
Video Format                   : AVC
Video Bit rate                 : 699 Kbps
Width                          : 1 280 pixels
Height                         : 542 pixels
Display aspect ratio           : 2.35:1
Frame rate mode                : Constant
Frame rate                     : 25.000 fps
Stream size                    : 537 MiB (89%)
Writing library                : x264 core 129 r2245
Audio Format                   : AAC
Audio Bit rate                 : 79.9 Kbps
Channel(s)                     : 2 channels
Channel positions              : Front: L R
Sampling rate                  : 48.0 KHz / 24.0 KHz
Stream size                    : 61.5 MiB (10%)
Language                       : Korean
Subtitle                       : Yes(English)
Source                         : Blu-ray.720p.x264.DTS-MySilu(Thanks)

Screenshots:
 
http://cdn.piczend.com/images/ySinAwex/1363233853_tinybayhaunters2010brri.jpg


----------------------------------------------------------------------------------------------------


Encoded using revolutionary 10bit encoding, which enables us to provide you more crispier 
and sharper images at small sizes, just make sure you follow our instructions without a fault.
Recommend to you to use latest version of VLC player. Install K-Lite Codec Pack or shark007 codecs
in case of any kind of problem in playback (For non-VLC Media Player users). Alternatively, install
Core AVC codecs, the fastest decoder that there is coupled with Community Center Codec Pack and play
on Windows Media Player Classic.

Encoder Notes: Encoder Notes: Looking For Early Access To Anything You Can Provide DVDScr, R5, DVDR, BluRay, Direct
Audio, Music Releases and Seedboxes. We require dedicated servers, so as to do more and fast releases of movies.
If You Got anything to offer contact us at "prg@hush.com".